PathFileType   4   (X/Y/Z)
DataRate	CameraRate	NumFrames	NumMarkers	Units	OrigDataRate	OrigDataStartFrame	OrigNumFrames
120.0	120.0	9	37	mm	120.0	73	116
Frame#	Time	midhip	hip_r	hip_l	knee_r	knee_l	ankle_r	ankle_l	midasis	asis_r	asis_l	psis_r	psis_l	epicondLat_r	epicondLat_l	epicondMed_r	epicondMed_l	malleolusLat_r	malleolusLat_l	malleolusMedv_r	malleolusMedv_l	neck	subclavicle_r	subclavicle_l	sternalnotch	xyphoidprocess	thighwand_r	thighwand_l	upperleg1_r	upperleg1_l	upperleg2_r	upperleg2_l	shankwand_r	shankwand_l	lowerleg1_r	lowerleg1_l	toe_r	toe_l
 	 	X1	Y1	Z1	X2	Y2	Z2	X3	Y3	Z3	X4	Y4	Z4	X5	Y5	Z5	X6	Y6	Z6	X7	Y7	Z7	X8	Y8	Z8	X9	Y9	Z9	X10	Y10	Z10	X11	Y11	Z11	X12	Y12	Z12	X13	Y13	Z13	X14	Y14	Z14	X15	Y15	Z15	X16	Y16	Z16	X17	Y17	Z17	X18	Y18	Z18	X19	Y19	Z19	X20	Y20	Z20	X21	Y21	Z21	X22	Y22	Z22	X23	Y23	Z23	X24	Y24	Z24	X25	Y25	Z25	X26	Y26	Z26	X27	Y27	Z27	X28	Y28	Z28	X29	Y29	Z29	X30	Y30	Z30	X31	Y31	Z31	X32	Y32	Z32	X33	Y33	Z33	X34	Y34	Z34	X35	Y35	Z35	X36	Y36	Z36	X37	Y37	Z37

	73	0.73333	1239.166	815.332	-264.259	1238.523	800.198	-191.776	1213.932	799.715	-341.903	1339.588	437.180	-209.762	1249.151	413.029	-393.996	1308.345	65.283	-234.051	979.748	188.311	-368.702	1314.454	875.640	-278.454	1329.746	875.830	-161.051	1299.161	875.449	-395.857	1124.970	932.428	-219.779	1114.392	926.450	-273.544	1347.873	436.642	-152.360	1255.388	421.286	-451.065	1330.837	440.553	-256.657	1290.593	417.682	-331.458	1297.554	63.676	-195.568	967.882	198.389	-405.548	1316.750	74.220	-267.878	994.533	188.165	-345.223	1205.815	1376.293	-263.988	1337.091	1316.899	-229.270	1324.967	1313.369	-335.315	1327.649	1311.904	-281.290	1368.387	1243.113	-287.479	1454.192	611.733	-229.410	1281.717	568.641	-520.632	1387.675	642.900	-160.803	1221.261	600.692	-451.546	1397.313	555.166	-164.819	1243.504	515.357	-451.763	1301.869	134.745	-119.932	1136.570	194.890	-375.299	1301.076	145.699	-162.572	1107.416	226.576	-381.210	1407.785	38.097	-205.822	989.351	77.052	-385.213
	74	0.74167	1248.748	817.359	-263.749	1247.470	801.814	-191.288	1223.722	801.944	-341.551	1341.493	437.228	-209.830	1266.092	414.961	-392.241	1308.981	65.239	-233.913	999.383	188.150	-366.342	1324.038	877.427	-277.253	1338.685	877.145	-159.648	1309.390	877.709	-394.858	1134.334	934.324	-219.535	1124.236	928.623	-273.385	1350.311	436.587	-152.508	1273.185	423.200	-449.213	1334.003	439.551	-255.664	1306.215	420.224	-329.926	1297.707	63.742	-195.563	987.961	197.331	-403.561	1317.866	74.181	-267.620	1013.818	187.599	-342.853	1215.143	1378.281	-262.946	1346.329	1318.987	-228.493	1334.284	1315.570	-334.441	1336.798	1313.938	-280.604	1377.727	1245.294	-286.713	1459.166	609.905	-230.754	1298.487	571.087	-519.071	1393.526	642.541	-162.895	1236.827	602.203	-451.032	1402.205	554.708	-165.765	1259.900	517.745	-450.934	1301.365	134.878	-119.895	1156.419	196.563	-370.766	1300.882	145.826	-162.655	1127.583	227.504	-376.955	1407.828	38.111	-205.762	1014.143	77.373	-384.395
	75	0.75000	1258.166	818.964	-262.812	1256.333	803.383	-190.867	1233.438	804.187	-341.260	1343.218	437.328	-209.874	1282.668	416.927	-390.417	1309.617	65.181	-233.779	1019.521	187.087	-364.016	1333.544	879.191	-276.082	1347.527	878.390	-158.372	1319.561	879.992	-393.792	1143.710	936.170	-219.318	1134.048	930.783	-273.219	1352.607	436.584	-152.644	1290.685	425.163	-447.267	1337.448	438.765	-254.949	1320.243	422.632	-327.962	1297.884	63.786	-195.564	1008.470	195.429	-401.543	1319.005	74.074	-267.371	1033.480	186.173	-340.446	1224.472	1380.170	-262.004	1355.671	1321.314	-228.103	1343.342	1317.690	-333.856	1345.897	1315.891	-279.918	1387.075	1247.593	-286.209	1463.999	608.084	-232.238	1315.180	573.604	-517.443	1399.127	642.002	-164.631	1252.104	604.136	-450.611	1407.151	554.524	-166.720	1275.773	519.676	-449.970	1300.892	135.077	-119.841	1176.637	197.910	-366.523	1300.714	146.217	-162.807	1147.279	228.075	-373.022	1407.865	38.121	-205.671	1039.784	77.215	-383.238
	76	0.75833	1267.304	820.557	-262.742	1265.138	804.887	-190.503	1243.067	806.408	-341.013	1344.877	437.482	-209.888	1298.888	418.911	-388.581	1310.191	65.113	-233.668	1040.162	185.162	-361.769	1342.974	880.907	-274.957	1356.304	879.554	-157.238	1329.643	882.261	-392.675	1153.090	937.957	-219.134	1143.809	932.888	-273.072	1354.816	436.624	-152.753	1307.866	427.165	-445.284	1339.767	439.068	-255.538	1334.174	424.993	-326.154	1298.058	63.811	-195.574	1029.377	192.768	-399.529	1319.734	74.042	-267.215	1054.114	184.245	-338.286	1233.797	1381.795	-261.242	1364.758	1323.515	-227.319	1352.035	1319.375	-333.488	1354.974	1317.758	-279.256	1396.057	1249.571	-285.430	1468.762	606.236	-233.686	1331.715	576.159	-515.758	1404.562	641.599	-165.463	1266.786	606.297	-450.183	1411.590	553.720	-167.765	1291.545	521.263	-449.056	1300.526	135.351	-119.774	1197.215	198.895	-362.746	1300.562	146.667	-162.943	1167.420	228.624	-370.589	1407.890	38.123	-205.559	1066.105	76.664	-381.814
	77	0.76667	1277.267	822.776	-262.318	1273.914	806.307	-190.180	1252.603	808.565	-340.791	1346.571	437.681	-209.884	1314.763	420.894	-386.782	1310.658	65.042	-233.585	1061.302	182.434	-359.633	1352.332	882.549	-273.891	1365.053	880.629	-156.248	1339.611	884.469	-391.535	1162.460	939.672	-218.997	1153.445	934.908	-272.981	1356.990	436.685	-152.836	1324.709	429.196	-443.316	1340.110	440.253	-255.953	1349.816	427.927	-324.660	1298.201	63.826	-195.593	1050.657	189.432	-397.550	1320.501	74.180	-266.966	1075.715	181.716	-336.323	1243.087	1383.238	-260.559	1373.735	1325.168	-226.527	1360.710	1320.738	-332.734	1364.035	1319.528	-278.628	1404.822	1251.040	-284.560	1473.509	604.325	-234.952	1348.021	578.714	-514.041	1410.189	641.172	-165.748	1281.503	608.237	-449.919	1415.217	552.734	-168.391	1307.851	523.299	-448.328	1300.305	135.705	-119.700	1218.136	199.512	-359.547	1300.813	147.264	-162.806	1188.575	229.222	-368.984	1407.910	38.117	-205.443	1092.988	75.809	-380.195
	78	0.77500	1287.277	825.172	-262.470	1282.679	807.620	-189.895	1262.051	810.620	-340.588	1348.377	437.903	-209.884	1330.290	422.862	-385.050	1311.015	64.967	-233.525	1082.942	178.973	-357.624	1361.628	884.088	-272.898	1373.796	881.601	-155.394	1349.460	886.575	-390.402	1171.808	941.306	-218.933	1162.947	936.807	-272.964	1359.169	436.741	-152.909	1341.193	431.242	-441.396	1341.147	441.148	-256.363	1365.845	431.261	-323.012	1298.304	63.837	-195.615	1072.299	185.493	-395.627	1321.229	74.625	-266.609	1097.187	178.834	-334.073	1252.533	1384.706	-259.748	1382.964	1326.591	-226.311	1369.737	1322.434	-331.715	1373.073	1321.172	-278.012	1413.888	1252.585	-284.206	1478.277	602.321	-235.940	1364.055	581.237	-512.327	1415.890	640.415	-166.224	1296.611	609.800	-449.764	1419.037	551.880	-169.015	1324.111	525.958	-447.565	1300.227	136.134	-119.624	1239.376	199.788	-356.965	1301.313	148.096	-162.286	1208.892	228.836	-366.723	1407.938	38.111	-205.342	1120.350	74.731	-378.445
	79	0.78333	1296.652	826.966	-262.926	1291.450	808.803	-189.654	1271.431	812.542	-340.412	1350.335	438.122	-209.916	1345.468	424.805	-383.395	1311.289	64.893	-233.476	1105.085	174.853	-355.748	1370.879	885.500	-271.986	1382.550	882.450	-154.668	1359.208	888.549	-389.303	1181.119	942.838	-218.961	1172.282	938.569	-273.036	1361.375	436.764	-152.993	1357.301	433.288	-439.538	1344.468	440.534	-257.007	1379.752	434.530	-320.378	1298.372	63.855	-195.634	1094.310	181.010	-393.774	1321.382	74.976	-266.477	1119.055	175.150	-331.947	1261.668	1386.009	-258.789	1392.068	1328.093	-225.950	1378.952	1324.294	-331.025	1382.103	1322.654	-277.370	1423.212	1254.370	-283.915	1483.091	600.208	-236.607	1379.792	583.697	-510.660	1420.995	639.321	-167.612	1311.211	611.163	-449.584	1423.175	551.019	-169.903	1339.314	528.340	-446.338	1300.259	136.622	-119.558	1260.901	199.774	-354.975	1301.538	148.592	-161.947	1228.603	227.476	-364.190	1407.981	38.104	-205.271	1148.122	73.493	-376.630
	80	0.79167	1304.909	827.733	-263.951	1300.232	809.838	-189.461	1280.757	814.305	-340.271	1352.446	438.312	-210.006	1360.315	426.711	-381.811	1311.540	64.821	-233.426	1127.740	170.157	-354.006	1380.095	886.763	-271.158	1391.320	883.162	-154.055	1368.871	890.364	-388.260	1190.385	944.244	-219.095	1181.508	940.165	-273.196	1363.600	436.733	-153.110	1373.032	435.315	-437.741	1346.235	440.835	-257.789	1393.461	437.580	-317.624	1298.431	63.888	-195.646	1116.713	176.034	-392.004	1321.473	74.954	-266.468	1141.763	170.646	-330.387	1270.151	1387.179	-258.115	1401.193	1329.667	-225.296	1388.035	1325.687	-330.605	1391.149	1323.958	-276.719	1432.618	1256.008	-283.309	1487.958	597.982	-236.953	1395.208	586.066	-509.079	1426.487	638.063	-168.664	1325.272	612.582	-449.334	1426.768	550.134	-170.600	1354.348	529.976	-444.973	1300.346	137.141	-119.518	1282.682	199.523	-353.495	1301.740	148.659	-161.942	1248.584	225.976	-362.021	1408.040	38.099	-205.233	1176.241	72.134	-374.815
	81	0.80000	1313.292	828.396	-264.686	1309.018	810.709	-189.321	1290.037	815.885	-340.171	1354.686	438.458	-210.176	1374.862	428.573	-380.283	1311.822	64.759	-233.367	1150.904	164.965	-352.399	1389.278	887.857	-270.414	1400.096	883.721	-153.540	1378.460	891.994	-387.289	1199.597	945.498	-219.335	1190.647	941.585	-273.435	1365.821	436.636	-153.284	1388.395	437.307	-436.002	1346.101	442.717	-258.495	1407.958	439.364	-316.635	1298.506	63.946	-195.657	1139.538	170.610	-390.332	1321.832	74.845	-266.384	1164.523	166.479	-328.684	1278.848	1388.193	-257.504	1410.302	1331.174	-224.602	1396.785	1326.708	-329.931	1400.204	1325.072	-276.090	1441.741	1257.362	-282.454	1492.884	595.646	-236.999	1410.275	588.314	-507.605	1432.645	636.856	-168.579	1339.298	614.085	-448.630	1430.045	549.062	-170.814	1369.353	531.607	-444.159	1300.449	137.662	-119.525	1304.695	199.097	-352.413	1302.079	148.583	-161.916	1269.485	224.290	-360.635	1408.107	38.095	-205.224	1204.642	70.674	-373.058
